<svg xmlns="http://www.w3.org/2000/svg" viewBox="0 0 1000 351.75"><path fill="#fff" fill-rule="evenodd" d="M469.52,118.60 L460.08,122.56 L450.31,127.68 L441.04,133.99 L431.85,141.34 L423.13,149.96 L415.49,159.44 L408.78,169.75 L403.19,180.64 L398.87,191.95 L395.98,203.56 L394.40,215.75 L394.22,227.57 L395.12,238.71 L397.10,249.45 L400.24,260.05 L404.46,270.36 L409.90,280.34 L415.85,289.25 L422.88,297.83 L430.59,306.05 L438.59,313.43 L446.74,319.74 L456.04,325.33 L466.06,329.87 L477.16,333.80 L488.70,336.65 L500.78,338.70 L513.25,340.04 L525.47,340.72 L536.86,340.25 L547.60,338.70 L557.69,336.18 L566.56,333.12 L574.53,329.55 L581.63,325.76 L588.52,321.44 L594.32,317.04 L599.01,312.35 L602.47,307.92 L605.28,303.23 L607.30,298.26 L608.74,293.28 L609.35,288.49 L609.35,283.73 L608.70,279.59 L607.33,275.48 L604.95,271.69 L601.74,268.66 L597.85,266.10 L593.24,264.30 L587.40,263.58 L580.40,263.94 L572.51,265.71 L563.82,268.74 L554.45,272.48 L544.65,276.41 L534.66,280.16 L525.11,283.15 L515.73,284.81 L507.48,285.32 L500.27,284.31 L494.32,282.07 L489.56,278.94 L486.03,275.37 L483.76,271.62 L483.26,267.87 L483.76,263.94 L485.71,260.34 L489.71,256.73 L493.96,253.81 L498.29,251.22 L504.09,248.44 L509.61,246.21 L514.91,244.22 L521.79,241.95 L528.35,239.86 L535.06,237.63 L541.69,235.50 L548.57,232.98 L556.18,229.88 L564.07,226.38 L570.56,222.52 L576.04,218.56 L581.67,213.80 L587.58,207.71 L591.72,201.47 L594.90,194.62 L597.24,187.56 L598.39,180.67 L598.86,173.71 L598.39,166.86 L597.06,160.66 L595.08,154.93 L591.90,149.31 L587.79,143.76 L582.42,138.28 L576.62,133.20 L569.84,128.51 L561.44,124.04 L551.78,119.97 L542.41,116.97 L531.78,114.74 L521.68,113.41 L510.54,112.69 L499.87,112.69 L489.89,113.66 L479.94,115.68Z M530.30,175.59 L531.13,179.84 L530.91,184.67 L529.36,189.50 L526.62,194.37 L522.62,198.70 L516.53,202.88 L510.36,206.34 L503.12,209.65 L495.19,212.47 L486.97,214.74 L478.82,216.32 L471.11,217.19 L465.16,216.83 L459.43,215.75 L455.25,213.29 L452.87,209.58 L452.07,204.90 L452.83,199.45 L454.85,193.54 L458.31,187.30 L462.82,181.25 L468.04,175.84 L474.32,171.08 L480.62,167.23 L487.33,164.34 L493.85,162.32 L500.09,161.35 L506.29,161.31 L511.91,161.78 L516.71,163.15 L521.25,165.03 L525.04,167.84 L528.21,171.44Z M882.84,111.06 L871.99,111.96 L861.14,113.98 L850.01,117.16 L839.37,121.34 L828.81,126.64 L818.90,132.58 L809.85,139.18 L802.03,146.25 L794.92,154.36 L788.80,163.19 L783.46,173.07 L779.21,183.09 L775.67,193.65 L773.04,204.97 L771.39,216.90 L771.02,228.61 L771.82,240.08 L773.73,250.93 L776.68,261.85 L780.69,272.67 L785.73,282.83 L791.68,292.24 L798.71,301.07 L806.57,309.18 L815.29,316.54 L824.63,322.95 L834.47,328.39 L844.24,332.79 L855.02,336.25 L865.69,338.60 L876.50,339.93 L887.35,340.18 L898.49,339.28 L909.74,337.19 L921.42,333.91 L931.87,329.73 L942.11,324.43 L951.77,318.16 L960.67,311.06 L968.64,302.95 L975.63,294.04 L981.47,284.89 L986.66,274.79 L990.81,264.12 L993.98,253.63 L996.18,242.75 L997.19,231.71 L997.19,221.01 L996.29,210.12 L994.38,199.56 L991.46,189.32 L987.31,178.54 L982.26,168.38 L976.53,159.19 L969.43,150.14 L961.18,141.67 L952.56,134.21 L943.41,127.79 L935.37,122.89 L926.79,118.71 L917.96,115.24 L909.12,112.94 L900.69,111.60 L891.89,110.92Z M877.62,170.90 L885.12,170.43 L892.33,170.83 L900.00,172.38 L906.89,174.65 L912.84,177.64 L918.42,181.18 L923.43,185.21 L928.08,190.08 L932.23,195.23 L935.33,200.71 L937.96,207.06 L939.87,213.58 L941.17,220.22 L941.60,227.46 L941.10,234.35 L939.73,241.56 L936.88,248.87 L933.31,255.36 L929.09,261.42 L923.80,267.29 L918.17,272.09 L911.90,276.31 L904.44,279.59 L897.05,281.39 L889.33,282.40 L881.44,282.61 L873.91,281.82 L866.48,280.34 L858.84,277.46 L852.64,274.07 L847.09,270.11 L841.86,265.06 L837.28,259.58 L833.35,253.38 L830.07,246.06 L828.38,238.38 L827.33,230.45 L827.37,222.13 L828.81,214.09 L831.51,205.83 L835.12,198.23 L839.41,191.74 L844.38,186.29 L849.93,181.28 L856.24,177.17 L863.38,174.11 L870.34,172.13Z M39.00,144.05 L35.54,150.14 L33.02,155.83 L30.93,163.04 L29.38,174.65 L28.01,187.12 L26.82,199.34 L25.92,210.74 L24.80,222.67 L23.39,235.18 L21.59,246.71 L19.11,254.32 L16.83,260.34 L14.64,265.78 L11.97,272.23 L9.16,279.19 L6.67,286.00 L4.79,292.67 L3.68,298.69 L2.92,305.65 L2.70,313.15 L3.35,320.00 L4.90,325.94 L7.57,331.46 L10.89,336.07 L14.85,340.25 L19.50,343.50 L24.73,346.02 L30.96,347.79 L37.56,348.69 L44.09,348.33 L50.76,346.85 L57.28,344.26 L63.23,340.51 L68.42,335.93 L72.31,330.67 L75.34,324.75 L77.39,318.63 L78.22,311.34 L77.14,301.14 L75.27,290.40 L73.07,279.73 L70.76,268.20 L68.67,256.26 L67.12,243.65 L66.47,232.04 L67.59,223.57 L69.90,215.67 L73.07,207.89 L77.14,201.36 L82.04,195.92 L87.60,191.81 L93.62,188.67 L99.85,186.29 L105.91,185.03 L112.11,184.78 L118.31,185.68 L124.26,187.77 L129.45,190.55 L134.10,194.04 L138.64,198.98 L142.75,204.79 L146.10,211.31 L148.66,219.24 L150.54,227.06 L152.27,235.28 L154.00,243.72 L155.40,250.93 L157.17,257.71 L159.58,263.94 L162.58,268.45 L165.82,272.30 L170.11,275.44 L174.72,277.60 L180.27,279.23 L186.08,279.87 L191.85,279.41 L197.58,277.96 L203.35,275.84 L208.10,272.95 L212.29,269.60 L215.49,265.56 L217.98,260.34 L219.67,254.89 L220.79,248.77 L221.84,241.45 L222.99,233.63 L224.47,225.37 L226.16,217.48 L228.29,210.55 L231.25,203.74 L234.56,197.97 L238.20,193.65 L242.38,190.04 L246.82,187.20 L252.59,184.89 L259.04,183.48 L265.38,183.05 L272.02,183.37 L278.90,184.89 L285.53,187.70 L291.84,191.49 L296.82,196.42 L300.89,202.80 L304.28,211.42 L306.48,221.62 L307.70,231.07 L308.14,240.15 L307.74,249.67 L306.95,258.17 L305.40,266.28 L303.63,272.95 L302.22,278.72 L300.89,285.39 L299.81,292.35 L299.41,298.91 L299.52,306.41 L300.60,313.25 L302.55,319.60 L305.22,325.22 L308.57,330.20 L312.17,334.41 L316.46,337.98 L322.05,340.51 L328.39,342.02 L334.70,342.63 L341.01,342.42 L347.72,340.83 L354.60,338.34 L360.77,335.24 L365.52,330.99 L369.20,325.73 L372.26,319.35 L374.54,312.10 L375.47,305.00 L375.51,297.75 L374.82,289.97 L372.88,282.00 L370.10,274.29 L366.86,267.04 L363.54,260.37 L360.22,253.56 L357.05,246.39 L354.17,237.19 L352.11,227.61 L350.46,217.08 L348.83,205.51 L347.10,193.50 L345.27,181.61 L343.07,169.86 L340.51,160.20 L337.19,151.29 L333.26,143.58 L329.08,137.31 L324.50,131.68 L319.49,126.56 L314.12,122.20 L307.96,118.38 L300.78,115.42 L293.57,113.33 L286.07,112.00 L277.82,111.75 L269.10,112.61 L260.34,114.52 L250.32,118.96 L241.16,124.15 L232.33,129.59 L223.78,135.14 L215.96,140.33 L207.89,144.95 L199.49,148.73 L192.96,150.07 L186.62,150.32 L179.55,149.31 L170.61,145.63 L161.71,141.16 L153.13,135.90 L144.34,130.20 L135.25,124.51 L125.48,119.07 L115.61,114.60 L107.10,112.69 L98.41,111.60 L89.90,111.60 L81.72,112.87 L73.93,114.85 L66.47,118.06 L59.73,122.06 L53.64,126.71 L48.05,131.97 L43.08,137.85Z M690.49,2.13 L684.29,2.70 L678.17,4.36 L672.15,6.92 L666.31,10.24 L661.37,14.24 L656.83,18.67 L652.72,23.90 L649.36,29.60 L647.06,35.72 L645.61,42.21 L645.18,49.89 L646.52,60.52 L648.07,70.73 L649.98,80.10 L652.21,89.51 L654.55,97.98 L656.79,105.48 L658.77,111.89 L659.64,116.04 L660.57,122.17 L661.37,129.41 L661.84,136.91 L661.84,146.35 L661.37,157.56 L659.60,171.70 L657.26,186.04 L654.77,198.41 L652.28,209.91 L649.69,221.26 L647.27,232.40 L645.33,243.72 L644.64,253.06 L644.57,261.81 L644.93,271.58 L645.98,282.29 L647.85,292.92 L650.52,302.37 L653.87,310.37 L657.76,317.15 L662.20,323.24 L667.46,328.76 L672.72,333.08 L678.53,336.65 L685.01,339.46 L691.97,341.44 L699.29,342.53 L706.79,342.60 L714.11,341.34 L721.68,338.85 L728.56,335.32 L734.58,330.56 L739.63,324.90 L743.63,318.41 L746.55,311.63 L748.06,304.31 L748.21,297.03 L747.59,290.11 L745.94,283.62 L743.05,277.10 L739.12,270.79 L734.72,264.59 L730.07,258.82 L725.32,253.13 L720.09,246.42 L715.01,239.28 L710.54,231.75 L707.04,224.79 L703.94,217.84 L701.24,209.58 L699.11,200.46 L697.85,191.63 L697.42,181.79 L697.88,171.62 L699.07,159.94 L701.20,147.33 L704.59,135.03 L709.53,121.95 L715.01,108.68 L720.49,96.64 L725.71,85.54 L730.36,75.63 L734.29,65.97 L737.07,57.06 L737.93,49.57 L737.86,42.86 L737.07,36.59 L735.16,30.24 L732.17,23.86 L727.95,18.28 L722.76,13.45 L717.06,9.66 L710.93,6.45 L703.83,3.97 L697.02,2.56Z"/></svg>